<?xml version="1.0" encoding="utf-8"?>
<!-- Svg Vector Icons : http://www.onlinewebfonts.com/icon -->
<!DOCTYPE svg PUBLIC "-//W3C//DTD SVG 1.1//EN" "http://www.w3.org/Graphics/SVG/1.1/DTD/svg11.dtd">
<svg version="1.1" xmlns="http://www.w3.org/2000/svg" xmlns:xlink="http://www.w3.org/1999/xlink" x="0px" y="0px" viewBox="0 0 1000 1000" enable-background="new 0 0 1000 1000" xml:space="preserve" fill="#FFFFFF">
<metadata> Svg Vector Icons : http://www.onlinewebfonts.com/icon </metadata>
<g><path d="M493.5,10C222.9,13.6,6.4,236,10,506.6C13.6,777,236,993.5,506.6,990c270.5-3.6,487-226,483.4-496.5C986.4,222.9,764.1,6.4,493.5,10L493.5,10z M492.1,798.3h-2.7c-41.7-1.2-71-32-69.9-73c1.2-40.3,31.3-69.6,71.6-69.6l2.5,0.1c42.8,1.3,71.9,31.7,70.6,73.9C563,770,533.4,798.3,492.1,798.3z M667.4,450.3c-9.9,13.9-31.4,31.2-58.5,52.3l-30,20.6c-16.4,12.8-26.3,24.8-30,36.6c-3,9.4-4.4,11.8-4.7,30.7l-0.1,4.9H430.2l0.3-9.7c1.4-39.7,2.4-63.1,18.8-82.4c25.8-30.3,82.8-67,85.2-68.6c8.1-6.2,15-13.2,20.2-20.6c12-16.5,17.2-29.6,17.2-42.3c0-17.7-5.3-34.2-15.6-48.7c-10-14.1-29-21.2-56.5-21.2c-27.3,0-45.9,8.7-57.1,26.4c-11.6,18.2-17.3,37.4-17.3,57v4.9H307.7l0.2-5.1c3.1-72.1,28.8-124,76.5-154.3c30-19.3,67.2-29.1,110.7-29.1c56.9,0,105.1,13.8,142.9,41.1c38.3,27.6,57.8,69.1,57.8,123.1c0,30.2-9.5,58.7-28.4,84.4L667.4,450.3z"/></g>
</svg>