<?xml version="1.0" encoding="utf-8"?>
<!-- Svg Vector Icons : http://www.onlinewebfonts.com/icon -->
<!DOCTYPE svg PUBLIC "-//W3C//DTD SVG 1.1//EN" "http://www.w3.org/Graphics/SVG/1.1/DTD/svg11.dtd">
<svg version="1.1" xmlns="http://www.w3.org/2000/svg" xmlns:xlink="http://www.w3.org/1999/xlink" x="0px" y="0px" viewBox="0 0 1000 1000" enable-background="new 0 0 1000 1000" xml:space="preserve" fill="#FFFFFF">
<metadata> Svg Vector Icons : http://www.onlinewebfonts.com/icon </metadata>
<g><g><path d="M500,623.2c103.2,0,210.6,22.4,322.4,67.3C934.1,735.4,990,794.2,990,866.8V990H10V866.8c0-72.6,55.9-131.3,167.6-176.2S396.8,623.2,500,623.2z M500,500c-66.9,0-124.2-23.9-171.9-71.6c-47.8-47.8-71.6-105.1-71.6-171.9s23.9-124.6,71.6-173.4C375.8,34.4,433.1,10,500,10s124.2,24.4,171.9,73.1c47.8,48.7,71.6,106.5,71.6,173.4s-23.9,124.2-71.6,171.9C624.2,476.1,566.9,500,500,500z"/></g></g>
</svg>